<svg width="33" height="40" viewBox="0 0 33 40" fill="none" xmlns="http://www.w3.org/2000/svg">
<path d="M7.0114 4.41543L6.54092 5.41132C6.35272 5.80339 6.52523 6.27386 6.9173 6.45424C7.02708 6.50129 7.13686 6.53265 7.24665 6.53265C7.54462 6.53265 7.82692 6.36798 7.96022 6.08569L9.38734 3.05106C9.38734 3.04322 9.38734 3.04322 9.39518 3.03538L9.41871 2.98833C9.41871 2.98049 9.42655 2.97265 9.42655 2.96481C9.43439 2.94128 9.44223 2.9256 9.44223 2.90208C9.44223 2.89423 9.44223 2.89423 9.45007 2.88639C9.45792 2.86287 9.45792 2.8315 9.46576 2.80014V2.7923V2.71388V2.69035C9.46576 2.66683 9.46576 2.65115 9.45792 2.62762V2.6041C9.45792 2.58842 9.45007 2.56489 9.45007 2.54921C9.45007 2.54137 9.44223 2.52569 9.44223 2.51784C9.43439 2.50216 9.43439 2.48648 9.42655 2.4708C9.42655 2.46295 9.41871 2.44727 9.41871 2.43943C9.41871 2.43159 9.41871 2.43159 9.41086 2.42375C9.40302 2.41591 9.40302 2.40022 9.39518 2.39238C9.39518 2.38454 9.38734 2.3767 9.38734 2.36886C9.38734 2.36886 9.38734 2.36102 9.3795 2.36102C9.37166 2.33749 9.35598 2.32181 9.34813 2.30613C9.34813 2.29828 9.34029 2.29828 9.34029 2.29044C9.30892 2.24339 9.26972 2.19635 9.23052 2.15714L9.17562 2.10225C9.16778 2.0944 9.15994 2.0944 9.1521 2.08656C9.13642 2.07872 9.12074 2.06304 9.10505 2.0552C9.09721 2.04736 9.08937 2.04736 9.08153 2.03951L9.03448 2.01599C9.02664 2.00815 9.0188 2.00815 9.01096 2.00031C8.99527 1.99247 8.97175 1.98463 8.95607 1.97678C8.94822 1.97678 8.94038 1.96894 8.93254 1.96894C8.90118 1.9611 8.87765 1.95326 8.84629 1.94542L5.50582 1.21616C5.08238 1.12206 4.66679 1.38866 4.57266 1.81211C4.47853 2.23555 4.74517 2.65113 5.16861 2.74526L6.32129 2.99619C0.989112 6.22683 -1.44164 12.9235 0.87935 18.9458C0.99697 19.2594 1.29495 19.4476 1.60861 19.4476C1.70271 19.4476 1.79681 19.4319 1.8909 19.3927C2.29866 19.2359 2.4947 18.7811 2.33787 18.3812C0.314759 13.1275 2.4006 7.28526 7.0114 4.41538V4.41543Z" fill="white"/>
<path d="M31.3592 37.0204C30.5986 35.3816 30.6613 34.8797 30.6691 34.8405C30.7554 34.6131 32.3864 30.3474 32.3942 28.685V27.8617V21.9179C32.3942 20.6555 31.367 19.6282 30.1045 19.6282C29.8535 19.6282 29.6105 19.6674 29.3831 19.7458C29.3596 18.1383 28.0344 16.8287 26.419 16.8287C25.9172 16.8287 25.4388 16.9542 25.0232 17.1816V17.1581C25.0232 16.3661 24.7174 15.6211 24.1607 15.0644C23.6039 14.5077 22.859 14.194 22.067 14.194C21.5652 14.194 21.0947 14.3195 20.6791 14.539V6.713V6.69732C20.6477 5.0663 19.2912 3.75675 17.6602 3.78815C16.0606 3.81952 14.7823 5.0977 14.751 6.69732V6.713V23.4232C14.1472 22.4666 13.4258 21.408 12.6731 20.5454C11.6694 19.3927 10.2893 19.0791 8.7837 19.6593C8.29754 19.8475 7.92116 20.2161 7.70945 20.6945C7.50557 21.1728 7.48989 21.6982 7.68593 22.1843C7.72514 22.2863 7.78003 22.3882 7.83492 22.4823C8.32892 23.2978 8.95627 24.6936 9.6228 26.1599C11.246 29.7434 13.0887 33.8053 15.1354 35.0915C16.3978 35.8835 19.0874 38.7142 20.0206 39.7414C20.1774 39.9139 20.3891 40.0002 20.6009 40.0002C20.7891 40.0002 20.9773 39.9296 21.1262 39.7963C21.4477 39.5062 21.4713 39.0121 21.1811 38.6906C21.04 38.5338 17.6682 34.8405 15.9744 33.7741C14.3277 32.739 12.4301 28.5674 11.05 25.5251C10.3364 23.949 9.7169 22.5845 9.17583 21.6827C9.16799 21.667 9.15231 21.6435 9.14446 21.6278C9.09742 21.5024 9.12878 21.3926 9.15231 21.3377C9.17583 21.2828 9.23072 21.1887 9.35619 21.1417C10.5246 20.6947 11.1362 21.1887 11.4969 21.5965C13.1828 23.5255 14.8295 26.7091 14.8452 26.7405C15.0098 27.062 15.3784 27.2266 15.7234 27.1482C16.0763 27.062 16.3194 26.7483 16.3194 26.3876V6.72147C16.335 5.96869 16.9388 5.37278 17.6837 5.35708C18.4443 5.3414 19.0874 5.95303 19.1031 6.72147V17.0489V17.0802V18.9387C19.1031 19.3699 19.4559 19.7228 19.8872 19.7228C20.3185 19.7228 20.6714 19.37 20.6714 18.9387V17.1195V17.1116C20.7028 16.3588 21.3144 15.7707 22.0672 15.7707C22.4436 15.7707 22.7886 15.9197 23.0552 16.1785C23.3218 16.4451 23.463 16.7901 23.463 17.1665V19.8012C23.463 20.2325 23.8158 20.5854 24.2471 20.5854C24.6785 20.5854 25.0313 20.2325 25.0313 19.8012C25.0313 19.0327 25.6586 18.4054 26.4271 18.4054C27.1956 18.4054 27.8229 19.0327 27.8229 19.8012V21.9263C27.8229 22.3576 28.1758 22.7105 28.6071 22.7105C29.0384 22.7105 29.3913 22.3576 29.3913 21.9263C29.3913 21.5264 29.7128 21.2049 30.1127 21.2049C30.5125 21.2049 30.834 21.5264 30.834 21.9263V28.6856C30.8262 29.7755 29.6578 33.1708 29.2187 34.2765C29.0384 34.7313 28.9521 35.5233 29.9088 37.617C30.3949 38.6677 30.9203 39.5695 30.9439 39.6087C31.0928 39.8596 31.3516 39.9929 31.6182 39.9929C31.7515 39.9929 31.8927 39.9615 32.0181 39.8831C32.3945 39.6636 32.5121 39.1852 32.2926 38.8089C32.2847 38.801 31.8064 37.9699 31.3594 37.021L31.3592 37.0204Z" fill="white"/>
<path d="M13.5047 11.6221C13.834 11.3398 13.8732 10.8458 13.5909 10.5165C11.8501 8.47764 11.8501 5.51363 13.5909 3.46701C15.5356 1.19297 18.9701 0.91853 21.2442 2.86321C22.3498 3.80419 23.0164 5.12155 23.1339 6.56437C23.2515 8.0072 22.7967 9.41081 21.8479 10.5165C21.5656 10.8458 21.6048 11.3398 21.9342 11.6221C22.0831 11.7476 22.2635 11.8103 22.4438 11.8103C22.6634 11.8103 22.883 11.7162 23.0398 11.5359C24.2552 10.1165 24.8433 8.30522 24.6943 6.4389C24.5454 4.57259 23.6828 2.87891 22.2635 1.67131C19.3308 -0.830138 14.9085 -0.485078 12.3992 2.4476C11.3171 3.71005 10.7212 5.32544 10.7212 6.98779C10.7212 8.65014 11.3171 10.2655 12.3992 11.528C12.6737 11.8652 13.1755 11.9044 13.5049 11.6221L13.5047 11.6221Z" fill="white"/>
</svg>
